<?xml version="1.0" encoding="UTF-8"?>
<svg id="Fire_1" data-name="Fire 1" xmlns="http://www.w3.org/2000/svg" viewBox="0 0 100 100">
  <defs>
    <style>
      .cls-1 {
        fill: #4b897f;
      }

      .cls-2, .cls-3 {
        fill: none;
      }

      .cls-2, .cls-3, .cls-4, .cls-5 {
        stroke-miterlimit: 10;
      }

      .cls-2, .cls-4 {
        stroke: #ccdedb;
      }

      .cls-3 {
        stroke: #4b897f;
      }

      .cls-3, .cls-5 {
        stroke-width: 2px;
      }

      .cls-4, .cls-6 {
        fill: #00382f;
      }

      .cls-5 {
        fill: #ccdedb;
        stroke: #00382f;
      }
    </style>
  </defs>
  <rect class="cls-5" x="1" y="1" width="97.88" height="98" rx="25.05" ry="25.05"/>
  <g>
    <path class="cls-1" d="M59.15,48.73c.08.08.77-.5.88-.59,1.49-1.28,2.34-3.12,2.91-4.96.41-1.3.25-3.34,2.24-2.88.77.17,1.36,2.13,1.61,2.85,1.78,5.13,2.1,10.81-.14,15.85-.49,1.11-1.33,3.21-2.83,2.62-1.76-.69-.21-2.56.24-3.56,1.72-3.84,1.74-7.72.84-11.79-.28-.06-.19.04-.26.15-.26.4-.46.94-.75,1.37-1.29,1.95-3.12,3.64-5.39,4.36-1.07.34-2.8.55-2.76-1.11.02-.69.61-2.27.78-3.1,1.51-7.64,1.58-17.38-5.31-22.46-.24-.03-.15,0-.17.17-.39,2.92-.37,5.23-1.21,8.19-1.16,4.09-4.56,10.25-8.95,11.5-1.58.45-2.1-.61-2.83-1.76l-.99-3.41-1.67,4.14c-1.11,1.53-2.87.72-2.5-1.21s2.49-5.71,3.54-7.39c.66-1.05,1.36-2.75,2.84-2.27,1.3.43.68,1.97.62,2.91-.12,1.95-.18,4.2.7,6,.23.15,1.52-.85,1.77-1.07,4.08-3.45,5.72-9.88,6-15.04.07-1.33-.6-4.85,1.57-4.64.67.06,2.22,1.12,2.81,1.54,7.99,5.75,8.35,16.76,6.43,25.59Z"/>
    <path class="cls-6" d="M47.52,53.79c-2.47,3.22-5.1,8.8-1.82,12.34.65.7,1.59.88,1.46,2.04-.22,1.94-2.7.91-3.78.51-6.89-2.52-15.51-13.81-10.51-25.81.79-1.9,3.62-.88,2.5,1.38-.07.13-2.12,3.62-1.13,8.65s3.24,9.45,7.52,11.93c-.09-.65-.31-1.28-.36-1.93-.34-4.68,3.07-10.78,6.58-13.75.75-.64,1.87-1.52,2.81-.69s.02,2.41-.19,3.43c-.33,1.58-.7,4.8.62,6.01,1.52,1.38,2.07-1.76,2.75-2.29,1.17-.9,2.09.3,2.69,1.2,1.53,2.31,2.21,5.37,1.2,8.03.24.23,4.79-4.28,5.01-4.58,1.38-1.88,3.38-.38,2.62.88-1.1,1.84-6.75,7-10.46,8-.85.23-1.7.52-2.29-.42-.79-1.27.43-1.72,1.05-2.35,1.89-1.91,2.22-4.48,1.23-6.93-.32-.09-.23.2-.4.36-3.49,3.08-7.12-.53-7.12-4.29v-1.7Z"/>
  </g>
  <path class="cls-3" d="M34.38,78.12l-5.4-2.05c-2-.9-3.04-3.28-2.09-5.26.07-.15.15-.3.25-.45,1.5-2.38,4-1.62,4-1.62l41.14,14.94c.82.3,1.54.84,2.01,1.58.52.83.87,2.01.1,3.36-.58,1.01-1.33,1.64-2.02,2.02-.98.54-2.15.59-3.2.22l-34.9-12.74"/>
  <path class="cls-4" d="M64.88,70.5l4.24-1.35c1.75-.56,3.72-.11,4.92,1.29.12.14.23.28.34.44.5.71.57,1.51.44,2.27-.28,1.62-1.49,2.91-3.03,3.47l-39.59,14.28c-.99.36-2.08.41-3.07.05-1.1-.4-1.49-1.04-2.38-2.83-.79-1.59.28-3.07,1.16-3.95.49-.48,1.08-.84,1.72-1.07l35.24-12.6Z"/>
  <path class="cls-3" d="M31.94,69s2.25,2.38,1.12,4.5-4.38,2.25-4.38,2.25"/>
  <path class="cls-2" d="M70.25,69s-2.25,2.38-1.12,4.5,4.38,2.25,4.38,2.25"/>
</svg>