<?xml version="1.0" encoding="UTF-8"?>
<svg id="Grass_1" data-name="Grass 1" xmlns="http://www.w3.org/2000/svg" viewBox="0 0 100 100">
  <defs>
    <style>
      .cls-1 {
        fill: #4b897f;
      }

      .cls-2 {
        fill: #00382f;
      }

      .cls-2, .cls-3 {
        stroke: #000;
        stroke-miterlimit: 10;
        stroke-width: 2px;
      }

      .cls-3 {
        fill: none;
      }

      .cls-4 {
        fill: #ccdedb;
      }
    </style>
  </defs>
  <rect class="cls-2" x="1.12" y="1.25" width="97.75" height="97.62" rx="25.05" ry="25.05"/>
  <g>
    <path class="cls-1" d="M99.12,47.14c-1.52,3.64-1.14,10.47-1.3,14.7-.03.84-.02,1.69.02,2.54s1.47,1.87.91,1.87l-95.92-.33c-.57,0-1.48,1.41-1.45.58.02-.72.45-3.57.46-4.3,0-.1,0-.2-.02-.3-.2-1.48-.38-2.97-.67-4.44-.54-2.71.4-5.91-.4-8.48,1.35,1.19,1.01,3.08,2.06,4.83.72,1.19,1.28,2.62,1.81,4.01.06.06-.45,4.11-.36,4.05.05-.04.88-4.53.9-4.66.45-2.61-.55-7.74-.85-10.57-.01-.1-.03-.3.02-.38,1.41,2.71,2.55,5.75,3,9.14l.19,1.77s0,.09.01.13l.1,2.13-.49,4.32c.76-1.75,1.75-8.02,1.94-10.07.15-1.65.24-3.5.29-5.18.02-.71-.02-1.42,0-2.13l.1-.04c.76,2.05,1.56,4.08,2.06,6.31.32,1.41.5,2.87.68,4.32.04.31,0,.63.11.94.07.02.1-.03.14-.11.89-1.58,1.35-5.26,1.45-7.24l.1-.53c.74,2.85,1.51,5.71,1.98,8.69.02.11.04,4.55.17,4.53.06-.83.02-6.05.13-6.86.16-1.16.42-2.4.69-3.53.71-2.99,1.74-5.79,2.62-8.66.08-.02.05.25.04.31-.44,3.14-.75,7.73-.23,10.85.07.4.56,2.55.74,2.68.11.03.07-.07.07-.18.07-1.49.25-2.67.77-3.98.14-.34.78-1.46.78-1.7l.76-1.2.45-.56c.76-.8,1.42-1.81,2.2-2.57.06-.06.11-.13.19-.11l-.85,2.26c-.11.34-.45,1.52-.45,1.83,0,.39-1.19,10.61-1.04,10.92.24.48,3.51-11.72,3.75-11.23l-3.88,11.61c.18-.58,2.81-9.98,3.04-10.51.16-.37.68-1.16.68-1.48,0-.86-.29-2.17-.38-3.06s-.15-1.8-.25-2.69c-.04-.37-.13-.78-.14-1.18.82,1.67,1.54,3.48,2.07,5.4.04.05.73-.64.83-.72.5-.4,1.03-.76,1.55-1.09.33-.21.58-.66.61-1.19.04-.75.04-1.5.04-2.25.01-.03.05.04.07.07.35.64,1.04,2.98,1.29,3.84.82,2.83,1.24,5.51,1.47,8.55.02.22-.14,4.9-.02,4.7.11-.18.53-5.29.61-5.54.58-1.81.85-3.79,1-5.76.05-.6.13-1.18.12-1.81.37,1.34.72,2.72,1.02,4.11.27,1.23.55,2.59.77,3.83.07.41.1.99.18,1.37.02.11-.04,5.96.05,5.93.14-3.5,1.06-12.62,1.94-15.86.52-1.92,1.12-3.8,1.68-5.69.01.77-.11,1.54-.17,2.31-.31,3.84-.58,7.97.35,11.69.1.39.26.78.32,1.2l.88,4.36c-.03-4.96,2-12.94,4.39-15.79l-.86,2.58c-.02.06-.03.12-.05.18-.13.62-.35,1.29-.46,1.91-.05.28-.17,1.23-.16,1.47,0,.08,0,.16.05.21.24.12.92,7.21,1.07,7.19.06,0,.34-5.98.36-6.07.31-1.44.84-2.74,1.53-3.86.13-.21.89-1.21.89-1.31,0-.09-.03-.16-.05-.25.34.22.59-.32.85-.56.63-.58,1.61-1.43,2.29-1.8.06-.03.11-.08.18-.06-.24.86-.51,1.71-.72,2.59s-.52,2.11-.67,2.99c-.04.26-.08.47-.03.74.09.47.49,1.32.64,1.9.32,1.17.49,2.37.67,3.58,0,.06.02.13.02.19l.14,2.42c.09.02.13-.01.19-.1.1-.15.39-.92.47-1.16.71-2.07.94-4.99,1.03-7.29.04-1.1-.05-2.21.09-3.3.83,1.75,1.65,3.8,2.14,5.83.37,1.52.55,3.16.73,4.75.06.12.07.03.12-.04.57-.85,1.18-3.51,1.34-4.7l.25-2.5c.73,2.63,1.08,8.23,1.54,11,.18-.56.6-4.19.68-4.79.36-2.7,1.2-5.19,1.98-7.65l1.38-3.82c0,.15,0,.31,0,.46-.03.71-.17,1.44-.24,2.14-.24,2.73-.39,5.63.23,8.3.15.63.57,4.82.83,5.36.01.01-.16-3.72-.16-3.73v-1.14c0-.4.36-1.69.51-2.08.89-2.37,2.58-4.13,4.05-5.63.09-.21-.44-1.42-.42-1.76.02-.03.34.28.38.32.45.46.92.93,1.35,1.42.46.52.88,1.14,1.34,1.65l.11-.03c.58-.63,1.22-1.13,1.88-1.55.4-.26.62-.89.56-1.53l-.39-4.12c.99,2.19,1.95,4.57,2.51,7.09s-.47,8.45-.35,10.96c0,.11,1.1-3.47,1.21-3.5.29-.48.47-1.1.63-1.69.77-2.77.94-6.5,1.03-9.48,0-.28-.04-3.23.07-3.23,1.19,3.05,2.1,6.29,2.54,9.75.1.8.15,1.62.23,2.43.02.19.14.37.09.61.09.03.09-.04.14-.12.77-1.47,1.31-5.1,1.45-6.94.04-.46,0-1.02.05-1.49,0-.1.03-.21.1-.1.39,1.83.86,3.62,1.24,5.45.23,1.15.49,2.32.61,3.51v5.7c.11,0,.22-5.68.23-5.83.21-3.18.95-6.19,1.69-9.16,0-.03.02-.06.02-.09l1.8-6.05c-.08,1.12-.16,2.25-.25,3.36-.25,3.43-.45,6.78.26,10.14.14.66,1.34,5.93,1.61,6.5.04-.96-.96-6.5-.78-7.43.34-1.74,1.13-3.47,1.95-4.8.87-1.42,1.89-2.62,2.87-3.87.1-.03.09.06.06.16-.06.24-.3.71-.39.98-.81,2.35-1.47,5.12-.88,7.74.1.44.33,3.03.55,3.33.05.06.42,4.15.5,4.12.21-1.11.02-7.55.25-8.65.62-3.02,1.1-5.38,3-7.2M30.83,48.18c-.09-.03-.1.03-.13.12-.26.61-.6,2.08-.78,2.82-.25,1.01-.97,3.9-.91,4.83.01.22.08.42.1.64.02.31.02,2.06.1,2.16.09.12-.09,6.17-.07,6.12,1.2-2.94,1.54-12.47,1.71-15.81.02-.29,0-.59,0-.89ZM69.98,50.31h-.14c-.17.66-.46,1.26-.64,1.93-.39,1.39-.52,2.86-.2,4.32.08.37,1.02,4.81,1.25,4.95.11.03-.36-3.17-.36-3.28,0-.21-.01-.42,0-.63.1-1.13.36-2.19.73-3.18.14-.38.17-.83.07-1.23l-.71-2.87ZM75.33,51.16c-.12-.05-.11.11-.15.24-.19.62-.4,1.38-.55,2.03-.08.32-.34,1.27-.36,1.54,0,.13,0,.27.03.39l.77,2.14.12-.05c.54-1.99.36-4.2.14-6.27ZM49.38,61.62c2,.08,1.32-7.24,1.25-7.8-.06.02-.55,3.27-.57,3.35-.03.17-.14,1.01-.15,1.2,0,.15-.66,3.28-.53,3.26Z"/>
    <path class="cls-1" d="M2.12,65.83l-.12,9.05c-.5,15.68,14.7,22.88,25.98,22.88h45.08c14.7,2,28.7-14.38,25.2-31.37v-.92s-96.12.37-96.12.37Z"/>
  </g>
  <g>
    <path class="cls-4" d="M45.33,97.62c.07-4.48-.08-8.99-.88-13.41-1.1-6.14-3.61-12.78-9.42-15.86.02.06.09.15.13.2.21.25.47.49.68.75,5.93,7.16,6.18,17.3,5.75,26.17l-.17,2.15h3.89ZM41.08,97.62c0-.14,0-.28,0-.42.17-2.64.41-5.4.26-8.05-.04-.81-.22-1.38-.45-2.15-1.23-4.24-3.46-9.54-7.74-11.45-1-.45-2.07-.67-3.16-.76-.05.03.05.06.07.07,5.88,2.45,7.27,9.44,7.88,15.14,1.1,2.38,1.61,4.97,1.99,7.55l.04.06h1.11ZM45.73,97.62h2.43c-.03-3.29.06-6.62.75-9.84.78-3.65,2.22-6.88,5.76-8.5.05-.02.09.02.07-.08-.4.05-.8.09-1.2.18-4.81,1.07-6.85,6.78-7.94,11.01l.13,2.86v4.37ZM39.51,97.62c-.19-1.39-.45-2.78-.8-4.14-1.07-4.15-2.96-7.95-7.9-7.77-.04,0-.12-.02-.12.03,1.55.46,2.92,1.43,3.82,2.78,1.04,1.57,1.42,3.5,1.64,5.35l.1,1.49v2.25s3.26,0,3.26,0Z"/>
    <path class="cls-4" d="M45.33,97.62h-3.89l.17-2.15c.43-8.87.17-19.01-5.75-26.17-.21-.26-.47-.5-.68-.75-.04-.05-.11-.14-.13-.2,5.8,3.08,8.32,9.72,9.42,15.86.79,4.42.95,8.93.88,13.41Z"/>
    <path class="cls-4" d="M41.08,97.62h-1.11l-.04-.06c-.39-2.58-.9-5.18-1.99-7.55-.6-5.7-2-12.69-7.88-15.14-.02,0-.11-.04-.07-.07,1.09.09,2.16.31,3.16.76,4.29,1.91,6.51,7.21,7.74,11.45.22.77.4,1.34.45,2.15.15,2.64-.1,5.4-.26,8.05,0,.14,0,.28,0,.42Z"/>
    <path class="cls-4" d="M45.73,97.62v-4.37s-.13-2.86-.13-2.86c1.09-4.23,3.13-9.94,7.94-11.01.4-.09.8-.13,1.2-.18.02.1-.03.05-.07.08-3.54,1.63-4.98,4.86-5.76,8.5-.69,3.23-.78,6.55-.75,9.84h-2.43Z"/>
    <path class="cls-4" d="M39.51,97.62h-3.26v-2.25s-.1-1.49-.1-1.49c-.21-1.85-.59-3.78-1.64-5.35-.9-1.35-2.27-2.32-3.82-2.78,0-.06.08-.03.12-.03,4.94-.18,6.82,3.62,7.9,7.77.35,1.36.61,2.75.8,4.14Z"/>
  </g>
  <g>
    <path class="cls-4" d="M48.77,97.62c-.07-4.48.08-8.99.88-13.41,1.1-6.14,3.61-12.78,9.42-15.86-.02.06-.09.15-.13.2-.21.25-.47.49-.68.75-5.93,7.16-6.18,17.3-5.75,26.17l.17,2.15h-3.89ZM53.02,97.62c0-.14,0-.28,0-.42-.17-2.64-.41-5.4-.26-8.05.04-.81.22-1.38.45-2.15,1.23-4.24,3.46-9.54,7.74-11.45,1-.45,2.07-.67,3.16-.76.05.03-.05.06-.07.07-5.88,2.45-7.27,9.44-7.88,15.14-1.1,2.38-1.61,4.97-1.99,7.55l-.04.06h-1.11Z"/>
    <path class="cls-4" d="M48.77,97.62h3.89l-.17-2.15c-.43-8.87-.17-19.01,5.75-26.17.21-.26.47-.5.68-.75.04-.05.11-.14.13-.2-5.8,3.08-8.32,9.72-9.42,15.86-.79,4.42-.95,8.93-.88,13.41Z"/>
    <path class="cls-4" d="M53.02,97.62h1.11l.04-.06c.39-2.58.9-5.18,1.99-7.55.6-5.7,2-12.69,7.88-15.14.02,0,.11-.04.07-.07-1.09.09-2.16.31-3.16.76-4.29,1.91-6.51,7.21-7.74,11.45-.22.77-.4,1.34-.45,2.15-.15,2.64.1,5.4.26,8.05,0,.14,0,.28,0,.42Z"/>
  </g>
  <g>
    <path class="cls-4" d="M68.79,97.75c-.07-3.42.08-6.88.88-10.25,1.1-4.69,3.61-9.77,9.42-12.12-.02.05-.09.11-.13.15-.21.19-.47.37-.68.57-5.93,5.48-6.18,13.23-5.75,20.01l.17,1.64h-3.89ZM73.05,97.75c0-.11,0-.21,0-.32-.17-2.02-.41-4.13-.26-6.15.04-.62.22-1.05.45-1.64,1.23-3.24,3.46-7.29,7.74-8.75,1-.34,2.07-.52,3.16-.58.05.02-.05.05-.07.05-5.88,1.87-7.27,7.22-7.88,11.57-1.1,1.82-1.61,3.8-1.99,5.77l-.04.04h-1.11ZM68.39,97.75h-2.43c.03-2.52-.06-5.06-.75-7.53-.78-2.79-2.22-5.26-5.76-6.5-.05-.02-.09.02-.07-.06.4.04.8.07,1.2.14,4.81.82,6.85,5.19,7.94,8.42l-.13,2.18v3.34ZM74.61,97.75c.19-1.06.45-2.13.8-3.16,1.07-3.17,2.96-6.08,7.9-5.94.04,0,.12-.02.12.03-1.55.35-2.92,1.1-3.82,2.13-1.04,1.2-1.42,2.67-1.64,4.09l-.1,1.14v1.72s-3.26,0-3.26,0Z"/>
    <path class="cls-4" d="M68.79,97.75h3.89l-.17-1.64c-.43-6.78-.17-14.53,5.75-20.01.21-.2.47-.38.68-.57.04-.04.11-.1.13-.15-5.8,2.36-8.32,7.43-9.42,12.12-.79,3.38-.95,6.83-.88,10.25Z"/>
    <path class="cls-4" d="M73.05,97.75h1.11l.04-.04c.39-1.97.9-3.96,1.99-5.77.6-4.35,2-9.7,7.88-11.57.02,0,.11-.03.07-.05-1.09.07-2.16.24-3.16.58-4.29,1.46-6.51,5.51-7.74,8.75-.22.59-.4,1.02-.45,1.64-.15,2.02.1,4.13.26,6.15,0,.11,0,.21,0,.32Z"/>
    <path class="cls-4" d="M68.39,97.75v-3.34s.13-2.18.13-2.18c-1.09-3.23-3.13-7.6-7.94-8.42-.4-.07-.8-.1-1.2-.14-.02.07.03.04.07.06,3.54,1.24,4.98,3.71,5.76,6.5.69,2.47.78,5.01.75,7.53h2.43Z"/>
    <path class="cls-4" d="M74.61,97.75h3.26v-1.72s.1-1.14.1-1.14c.21-1.42.59-2.89,1.64-4.09.9-1.03,2.27-1.77,3.82-2.13,0-.04-.08-.02-.12-.03-4.94-.14-6.82,2.77-7.9,5.94-.35,1.04-.61,2.1-.8,3.16Z"/>
  </g>
  <g>
    <path class="cls-4" d="M60.58,97.75c.07-3.42-.08-6.88-.88-10.25-1.1-4.69-3.61-9.77-9.42-12.12.02.05.09.11.13.15.21.19.47.37.68.57,5.93,5.48,6.18,13.23,5.75,20.01l-.17,1.64h3.89ZM56.33,97.75c0-.11,0-.21,0-.32.17-2.02.41-4.13.26-6.15-.04-.62-.22-1.05-.45-1.64-1.23-3.24-3.46-7.29-7.74-8.75-1-.34-2.07-.52-3.16-.58-.05.02.05.05.07.05,5.88,1.87,7.27,7.22,7.88,11.57,1.1,1.82,1.61,3.8,1.99,5.77l.04.04h1.11Z"/>
    <path class="cls-4" d="M60.58,97.75h-3.89l.17-1.64c.43-6.78.17-14.53-5.75-20.01-.21-.2-.47-.38-.68-.57-.04-.04-.11-.1-.13-.15,5.8,2.36,8.32,7.43,9.42,12.12.79,3.38.95,6.83.88,10.25Z"/>
    <path class="cls-4" d="M56.33,97.75h-1.11l-.04-.04c-.39-1.97-.9-3.96-1.99-5.77-.6-4.35-2-9.7-7.88-11.57-.02,0-.11-.03-.07-.05,1.09.07,2.16.24,3.16.58,4.29,1.46,6.51,5.51,7.74,8.75.22.59.4,1.02.45,1.64.15,2.02-.1,4.13-.26,6.15,0,.11,0,.21,0,.32Z"/>
  </g>
  <g>
    <path class="cls-4" d="M25.89,97.62c-.07-3.42.08-6.88.88-10.25,1.1-4.69,3.61-9.77,9.42-12.12-.02.05-.09.11-.13.15-.21.19-.47.37-.68.57-5.93,5.48-6.18,13.23-5.75,20.01l.17,1.64h-3.89ZM30.15,97.62c0-.11,0-.21,0-.32-.17-2.02-.41-4.13-.26-6.15.04-.62.22-1.05.45-1.64,1.23-3.24,3.46-7.29,7.74-8.75,1-.34,2.07-.52,3.16-.58.05.02-.05.05-.07.05-5.88,1.87-7.27,7.22-7.88,11.57-1.1,1.82-1.61,3.8-1.99,5.77l-.04.04h-1.11ZM25.49,97.62h-2.43c.03-2.52-.06-5.06-.75-7.53-.78-2.79-2.22-5.26-5.76-6.5-.05-.02-.09.02-.07-.06.4.04.8.07,1.2.14,4.81.82,6.85,5.19,7.94,8.42l-.13,2.18v3.34ZM31.71,97.62c.19-1.06.45-2.13.8-3.16,1.07-3.17,2.96-6.08,7.9-5.94.04,0,.12-.02.12.03-1.55.35-2.92,1.1-3.82,2.13-1.04,1.2-1.42,2.67-1.64,4.09l-.1,1.14v1.72s-3.26,0-3.26,0Z"/>
    <path class="cls-4" d="M25.89,97.62h3.89l-.17-1.64c-.43-6.78-.17-14.53,5.75-20.01.21-.2.47-.38.68-.57.04-.04.11-.1.13-.15-5.8,2.36-8.32,7.43-9.42,12.12-.79,3.38-.95,6.83-.88,10.25Z"/>
    <path class="cls-4" d="M30.15,97.62h1.11l.04-.04c.39-1.97.9-3.96,1.99-5.77.6-4.35,2-9.7,7.88-11.57.02,0,.11-.03.07-.05-1.09.07-2.16.24-3.16.58-4.29,1.46-6.51,5.51-7.74,8.75-.22.59-.4,1.02-.45,1.64-.15,2.02.1,4.13.26,6.15,0,.11,0,.21,0,.32Z"/>
    <path class="cls-4" d="M25.49,97.62v-3.34s.13-2.18.13-2.18c-1.09-3.23-3.13-7.6-7.94-8.42-.4-.07-.8-.1-1.2-.14-.02.07.03.04.07.06,3.54,1.24,4.98,3.71,5.76,6.5.69,2.47.78,5.01.75,7.53h2.43Z"/>
    <path class="cls-4" d="M31.71,97.62h3.26v-1.72s.1-1.14.1-1.14c.21-1.42.59-2.89,1.64-4.09.9-1.03,2.27-1.77,3.82-2.13,0-.04-.08-.02-.12-.03-4.94-.14-6.82,2.77-7.9,5.94-.35,1.04-.61,2.1-.8,3.16Z"/>
  </g>
  <g>
    <path class="cls-4" d="M22.46,97.62c.07-3.42-.08-6.88-.88-10.25-1.1-4.69-3.61-9.77-9.42-12.12.02.05.09.11.13.15.21.19.47.37.68.57,5.93,5.48,6.18,13.23,5.75,20.01l-.17,1.64h3.89ZM18.2,97.62c0-.11,0-.21,0-.32.17-2.02.41-4.13.26-6.15-.04-.62-.22-1.05-.45-1.64-1.23-3.24-3.46-7.29-7.74-8.75-1-.34-2.07-.52-3.16-.58-.05.02.05.05.07.05,5.88,1.87,7.27,7.22,7.88,11.57,1.1,1.82,1.61,3.8,1.99,5.77l.04.04h1.11Z"/>
    <path class="cls-4" d="M22.46,97.62h-3.89l.17-1.64c.43-6.78.17-14.53-5.75-20.01-.21-.2-.47-.38-.68-.57-.04-.04-.11-.1-.13-.15,5.8,2.36,8.32,7.43,9.42,12.12.79,3.38.95,6.83.88,10.25Z"/>
    <path class="cls-4" d="M18.2,97.62h-1.11l-.04-.04c-.39-1.97-.9-3.96-1.99-5.77-.6-4.35-2-9.7-7.88-11.57-.02,0-.11-.03-.07-.05,1.09.07,2.16.24,3.16.58,4.29,1.46,6.51,5.51,7.74,8.75.22.59.4,1.02.45,1.64.15,2.02-.1,4.13-.26,6.15,0,.11,0,.21,0,.32Z"/>
  </g>
  <rect class="cls-3" x="1.12" y="1.12" width="97.75" height="97.62" rx="25.05" ry="25.05"/>
  <g>
    <path class="cls-4" d="M65.49,97.75c.07-3.42-.08-6.88-.88-10.25-1.1-4.69-3.61-9.77-9.42-12.12.02.05.09.11.13.15.21.19.47.37.68.57,5.93,5.48,6.18,13.23,5.75,20.01l-.17,1.64h3.89ZM61.23,97.75c0-.11,0-.21,0-.32.17-2.02.41-4.13.26-6.15-.04-.62-.22-1.05-.45-1.64-1.23-3.24-3.46-7.29-7.74-8.75-1-.34-2.07-.52-3.16-.58-.05.02.05.05.07.05,5.88,1.87,7.27,7.22,7.88,11.57,1.1,1.82,1.61,3.8,1.99,5.77l.04.04h1.11Z"/>
    <path class="cls-4" d="M65.49,97.75h-3.89l.17-1.64c.43-6.78.17-14.53-5.75-20.01-.21-.2-.47-.38-.68-.57-.04-.04-.11-.1-.13-.15,5.8,2.36,8.32,7.43,9.42,12.12.79,3.38.95,6.83.88,10.25Z"/>
    <path class="cls-4" d="M61.23,97.75h-1.11l-.04-.04c-.39-1.97-.9-3.96-1.99-5.77-.6-4.35-2-9.7-7.88-11.57-.02,0-.11-.03-.07-.05,1.09.07,2.16.24,3.16.58,4.29,1.46,6.51,5.51,7.74,8.75.22.59.4,1.02.45,1.64.15,2.02-.1,4.13-.26,6.15,0,.11,0,.21,0,.32Z"/>
  </g>
  <path class="cls-4" d="M78.93,97.38h1.11l.04-.04c.39-1.97.9-3.96,1.99-5.77.6-4.35,2-9.7,7.88-11.57.02,0,.11-.03.07-.05-1.09.07-2.16.24-3.16.58-4.29,1.46-6.51,5.51-7.74,8.75-.22.59-.4,1.02-.45,1.64-.15,2.02.1,4.13.26,6.15,0,.11,0,.21,0,.32Z"/>
  <path class="cls-4" d="M80.5,97.38h3.26v-1.72s.1-1.14.1-1.14c.21-1.42.59-2.89,1.64-4.09.9-1.03,2.27-1.77,3.82-2.13,0-.04-.08-.02-.12-.03-4.94-.14-6.82,2.77-7.9,5.94-.35,1.04-.61,2.1-.8,3.16Z"/>
  <path class="cls-4" d="M90.65,92.59l.62-1.84.13-2.18c-1.09-3.23-3.13-7.6-7.94-8.42-.4-.07-.8-.1-1.2-.14-.02.07.03.04.07.06,3.54,1.24,4.98,3.71,5.76,6.5.69,2.47.78,5.01.75,7.53l1.81-1.5Z"/>
  <path class="cls-4" d="M84.33,95.62h3.89l-.17-1.64c-.43-6.78-.17-14.53,5.75-20.01.21-.2.47-.38.68-.57.04-.04.11-.1.13-.15-5.8,2.36-8.32,7.43-9.42,12.12-.79,3.38-.95,6.83-.88,10.25Z"/>
  <path class="cls-4" d="M13.11,95.38v-3.34s-.13-2.18-.13-2.18c1.09-3.23,3.13-7.6,7.94-8.42.4-.07.8-.1,1.2-.14.02.07-.03.04-.07.06-3.54,1.24-4.98,3.71-5.76,6.5-.69,2.47-.78,5.01-.75,7.53h-2.43Z"/>
  <path class="cls-4" d="M12.67,93.62l-3.54-.62-.18-1.02c.43-6.78.17-14.53-5.75-20.01-.21-.2-.47-.38-.68-.57-.04-.04-.11-.1-.13-.15,5.8,2.36,8.32,7.43,9.42,12.12.79,3.38.95,6.83.88,10.25Z"/>
  <rect class="cls-3" x="1.12" y="1.12" width="97.75" height="97.62" rx="25.05" ry="25.05"/>
</svg>