<?xml version="1.0" encoding="UTF-8"?>
<svg id="Rain_1" data-name="Rain 1" xmlns="http://www.w3.org/2000/svg" viewBox="0 0 100 100">
  <defs>
    <style>
      .cls-1, .cls-2 {
        fill: #4b897f;
      }

      .cls-3 {
        fill: #00382f;
        stroke: #000;
        stroke-width: 2px;
      }

      .cls-3, .cls-2 {
        stroke-miterlimit: 10;
      }

      .cls-4 {
        fill: #ccded9;
      }

      .cls-2 {
        stroke: #ccdedb;
      }
    </style>
  </defs>
  <rect class="cls-3" x="1.12" y="1.25" width="97.75" height="98" rx="25.05" ry="25.05"/>
  <path class="cls-4" d="M55.63,51.43c.16-.58,1-1.01,1.57-.82.72.24.79.86.84,1.51.26,2.85-.06,6,.17,8.88-.18,1.42-2.11,1.47-2.38.09l-.2-9.65Z"/>
  <path class="cls-4" d="M43.33,47.72c.86-.64,1.73-.29,1.99.73l.22,9.47c-.43,1.47-2.31,1.31-2.4-.28l-.18-9.17c0-.31.13-.56.38-.75Z"/>
  <path class="cls-4" d="M68.06,35.22c.8-.66,1.92-.27,2.06.75l.19,9.32c-.21,1.5-2.2,1.48-2.39.02l-.19-9.25c.02-.27.12-.66.33-.84Z"/>
  <path class="cls-4" d="M59.85,39.37c.91-.72,1.95-.16,2.02.96l.11,9.51c-.72,1.22-2.23.88-2.33-.55l-.11-9.51c.09-.13.18-.31.31-.41Z"/>
  <path class="cls-4" d="M51.54,43.57c.75-.63,1.87-.32,2.02.66l.23,9.41c-.21,1.5-2.2,1.48-2.39.02l-.19-9.25c.02-.27.12-.66.33-.84Z"/>
  <path class="cls-4" d="M48.11,55.83c.86-.64,1.73-.29,1.99.73l.22,9.47c-.43,1.47-2.31,1.31-2.4-.28l-.18-9.17c0-.31.13-.56.38-.75Z"/>
  <path class="cls-4" d="M72.76,39.92c.8-.66,1.92-.27,2.06.75l.19,9.32c-.21,1.5-2.2,1.48-2.39.02l-.19-9.25c.02-.27.12-.66.33-.84Z"/>
  <path class="cls-4" d="M64.22,45.72c.86-.71,1.81-.38,2.08.68l.14,9.74c-.67,1.13-2.06.9-2.34-.41.17-2.95-.38-6.2-.22-9.11.02-.29.1-.71.34-.91Z"/>
  <ellipse class="cls-1" cx="60.23" cy="90.14" rx="22.65" ry="2.61"/>
  <path class="cls-4" d="M56.44,74.88c.16-.58,1-1.01,1.57-.82.72.24.79.86.84,1.51.26,2.85-.06,6,.17,8.88-.18,1.42-2.11,1.47-2.38.09l-.2-9.65Z"/>
  <path class="cls-4" d="M44.56,71.71c.86-.64,1.73-.29,1.99.73l.22,9.47c-.43,1.47-2.31,1.31-2.4-.28l-.18-9.17c0-.31.13-.56.38-.75Z"/>
  <path class="cls-4" d="M69.41,55.72c.8-.66,1.92-.27,2.06.75l.19,9.32c-.21,1.5-2.2,1.48-2.39.02l-.19-9.25c.02-.27.12-.66.33-.84Z"/>
  <path class="cls-4" d="M61.08,63.36c.91-.72,1.95-.16,2.02.96l.11,9.51c-.72,1.22-2.23.88-2.33-.55l-.11-9.51c.09-.13.18-.31.31-.41Z"/>
  <path class="cls-4" d="M52.77,67.55c.75-.63,1.87-.32,2.02.66l.23,9.41c-.21,1.5-2.2,1.48-2.39.02l-.19-9.25c.02-.27.12-.66.33-.84Z"/>
  <path class="cls-4" d="M48.91,77.82c.86-.64,1.73-.29,1.99.73l.22,9.47c-.43,1.47-2.31,1.31-2.4-.28l-.18-9.17c0-.31.13-.56.38-.75Z"/>
  <path class="cls-4" d="M73.79,64.24c.8-.66,1.92-.27,2.06.75l.19,9.32c-.21,1.5-2.2,1.48-2.39.02l-.19-9.25c.02-.27.12-.66.33-.84Z"/>
  <path class="cls-4" d="M65.84,67.86c.86-.71,1.81-.38,2.08.68l.14,9.74c-.67,1.13-2.06.9-2.34-.41.17-2.95-.38-6.2-.22-9.11.02-.29.1-.71.34-.91Z"/>
  <path class="cls-4" d="M46.81,34.79c.86-.64,1.73-.29,1.99.73l.22,9.47c-.43,1.47-2.31,1.31-2.4-.28l-.18-9.17c0-.31.13-.56.38-.75Z"/>
  <path class="cls-4" d="M70.78,76.8c.86-.71,1.81-.38,2.08.68l.14,9.74c-.67,1.13-2.06.9-2.34-.41.17-2.95-.38-6.2-.22-9.11.02-.29.1-.71.34-.91Z"/>
  <path class="cls-2" d="M41.38,36.87l32.89-.08c1.32,0,2.6-.4,3.67-1.18,1.87-1.36,4.32-3.89,3.75-7.57-.7-4.53-4.98-6.61-6.83-7.3-.46-.17-.72-.65-.62-1.13.46-2.24.99-8.43-5.84-12.53-8.24-4.94-16.48,3.52-15.94,6.53.02.11-.06.21-.17.18-1.29-.33-7.46-1.52-9.68,5.02-.04.13-.16.22-.29.23-1.31.05-8.11.72-8.43,9.09-.36,9.28,7.49,8.74,7.49,8.74Z"/>
</svg>