<?xml version="1.0" encoding="UTF-8"?>
<svg id="Rain_1" data-name="Rain 1" xmlns="http://www.w3.org/2000/svg" viewBox="0 0 100 100">
  <defs>
    <style>
      .cls-1 {
        fill: #4b897f;
      }

      .cls-2 {
        fill: #ccded9;
        stroke: #00382f;
        stroke-width: 2px;
      }

      .cls-2, .cls-3 {
        stroke-miterlimit: 10;
      }

      .cls-3 {
        stroke: #4b897f;
      }

      .cls-3, .cls-4 {
        fill: #00382f;
      }
    </style>
  </defs>
  <rect class="cls-2" x="1.12" y="1.5" width="97.75" height="97.25" rx="25.05" ry="25.05"/>
  <path class="cls-1" d="M46.13,53.24c.16-.58,1-1.01,1.57-.82.72.24.79.86.84,1.51.26,2.85-.06,6,.17,8.88-.18,1.42-2.11,1.47-2.38.09l-.2-9.65Z"/>
  <path class="cls-1" d="M33.83,49.53c.86-.64,1.73-.29,1.99.73l.22,9.47c-.43,1.47-2.31,1.31-2.4-.28l-.18-9.17c0-.31.13-.56.38-.75Z"/>
  <path class="cls-1" d="M58.56,37.03c.8-.66,1.92-.27,2.06.75l.19,9.32c-.21,1.5-2.2,1.48-2.39.02l-.19-9.25c.02-.27.12-.66.33-.84Z"/>
  <path class="cls-1" d="M50.35,41.18c.91-.72,1.95-.16,2.02.96l.11,9.51c-.72,1.22-2.23.88-2.33-.55l-.11-9.51c.09-.13.18-.31.31-.41Z"/>
  <path class="cls-1" d="M42.04,45.38c.75-.63,1.87-.32,2.02.66l.23,9.41c-.21,1.5-2.2,1.48-2.39.02l-.19-9.25c.02-.27.12-.66.33-.84Z"/>
  <path class="cls-1" d="M38.61,57.64c.86-.64,1.73-.29,1.99.73l.22,9.47c-.43,1.47-2.31,1.31-2.4-.28l-.18-9.17c0-.31.13-.56.38-.75Z"/>
  <path class="cls-1" d="M63.26,41.73c.8-.66,1.92-.27,2.06.75l.19,9.32c-.21,1.5-2.2,1.48-2.39.02l-.19-9.25c.02-.27.12-.66.33-.84Z"/>
  <path class="cls-1" d="M54.72,47.53c.86-.71,1.81-.38,2.08.68l.14,9.74c-.67,1.13-2.06.9-2.34-.41.17-2.95-.38-6.2-.22-9.11.02-.29.1-.71.34-.91Z"/>
  <ellipse class="cls-4" cx="50.73" cy="91.95" rx="22.65" ry="2.61"/>
  <path class="cls-1" d="M46.94,76.69c.16-.58,1-1.01,1.57-.82.72.24.79.86.84,1.51.26,2.85-.06,6,.17,8.88-.18,1.42-2.11,1.47-2.38.09l-.2-9.65Z"/>
  <path class="cls-1" d="M35.06,73.52c.86-.64,1.73-.29,1.99.73l.22,9.47c-.43,1.47-2.31,1.31-2.4-.28l-.18-9.17c0-.31.13-.56.38-.75Z"/>
  <path class="cls-1" d="M59.91,57.53c.8-.66,1.92-.27,2.06.75l.19,9.32c-.21,1.5-2.2,1.48-2.39.02l-.19-9.25c.02-.27.12-.66.33-.84Z"/>
  <path class="cls-1" d="M51.58,65.17c.91-.72,1.95-.16,2.02.96l.11,9.51c-.72,1.22-2.23.88-2.33-.55l-.11-9.51c.09-.13.18-.31.31-.41Z"/>
  <path class="cls-1" d="M43.27,69.36c.75-.63,1.87-.32,2.02.66l.23,9.41c-.21,1.5-2.2,1.48-2.39.02l-.19-9.25c.02-.27.12-.66.33-.84Z"/>
  <path class="cls-1" d="M39.41,79.64c.86-.64,1.73-.29,1.99.73l.22,9.47c-.43,1.47-2.31,1.31-2.4-.28l-.18-9.17c0-.31.13-.56.38-.75Z"/>
  <path class="cls-1" d="M64.29,66.05c.8-.66,1.92-.27,2.06.75l.19,9.32c-.21,1.5-2.2,1.48-2.39.02l-.19-9.25c.02-.27.12-.66.33-.84Z"/>
  <path class="cls-1" d="M56.34,69.67c.86-.71,1.81-.38,2.08.68l.14,9.74c-.67,1.13-2.06.9-2.34-.41.17-2.95-.38-6.2-.22-9.11.02-.29.1-.71.34-.91Z"/>
  <path class="cls-1" d="M37.31,36.61c.86-.64,1.73-.29,1.99.73l.22,9.47c-.43,1.47-2.31,1.31-2.4-.28l-.18-9.17c0-.31.13-.56.38-.75Z"/>
  <path class="cls-1" d="M61.28,78.61c.86-.71,1.81-.38,2.08.68l.14,9.74c-.67,1.13-2.06.9-2.34-.41.17-2.95-.38-6.2-.22-9.11.02-.29.1-.71.34-.91Z"/>
  <path class="cls-3" d="M31.88,38.68l32.89-.08c1.32,0,2.6-.4,3.67-1.18,1.87-1.36,4.32-3.89,3.75-7.57-.7-4.53-4.98-6.61-6.83-7.3-.46-.17-.72-.65-.62-1.13.46-2.24.99-8.43-5.84-12.53-8.24-4.94-16.48,3.52-15.94,6.53.02.11-.06.21-.17.18-1.29-.33-7.46-1.52-9.68,5.02-.04.13-.16.22-.29.23-1.31.05-8.11.72-8.43,9.09-.36,9.28,7.49,8.74,7.49,8.74Z"/>
</svg>