<?xml version="1.0" encoding="UTF-8"?>
<svg id="Tree_2" data-name="Tree 2" xmlns="http://www.w3.org/2000/svg" viewBox="0 0 100 100">
  <defs>
    <style>
      .cls-1, .cls-2 {
        fill: #4b897f;
      }

      .cls-2, .cls-3, .cls-4 {
        stroke: #00382f;
        stroke-miterlimit: 10;
      }

      .cls-3 {
        fill: none;
      }

      .cls-3, .cls-4 {
        stroke-width: 2px;
      }

      .cls-4 {
        fill: #ccdedb;
      }
    </style>
  </defs>
  <rect class="cls-4" x=".88" y="1.12" width="97.88" height="97.75" rx="25.05" ry="25.05"/>
  <path class="cls-2" d="M97.88,65.88s-19.85,5.12-24.38,16-19.73,13.12-28.27,9.88c0,0-17.97-11-36.82-.5l-3.02-3-2.14-3.38c18.85-10.5,39.84-.12,39.84-.12,8.55,3.25,23.75,1,28.27-9.88,4.52-10.88,26.52-17.51,26.52-17.51v8.5Z"/>
  <line class="cls-3" x1="52.1" y1="80.29" x2="52.1" y2="17.54"/>
  <polyline class="cls-3" points="48.59 20.91 52.01 17.5 55.39 20.89"/>
  <polyline class="cls-3" points="43.97 51.04 52.09 42.92 60.15 50.98"/>
  <polyline class="cls-3" points="42.7 62.25 52.07 52.88 61.38 62.18"/>
  <polyline class="cls-3" points="45.84 39.82 52 33.66 58.1 39.77"/>
  <polyline class="cls-3" points="47.75 29.79 52.25 25.29 56.72 29.75"/>
  <path class="cls-1" d="M30.93,25.71c-6.06,0-10.97-4.91-10.97-10.97,0-2.38.77-4.58,2.06-6.37-4.24,1.52-7.27,5.56-7.27,10.31,0,6.06,4.91,10.97,10.97,10.97,3.68,0,6.92-1.81,8.91-4.59-1.16.41-2.4.65-3.69.65Z"/>
  <polyline class="cls-3" points="40.47 74.12 52.34 62.25 64.12 74.03"/>
  <line class="cls-3" x1="29.09" y1="75.12" x2="29.09" y2="42.3"/>
  <polyline class="cls-3" points="26.33 45.26 29.12 42.47 31.89 45.24"/>
  <polyline class="cls-3" points="24.18 62.32 29.08 57.42 33.95 62.29"/>
  <polyline class="cls-3" points="25.86 52.95 29.07 49.73 32.27 52.92"/>
  <polyline class="cls-3" points="23 70.65 29.21 64.44 35.37 70.6"/>
  <line class="cls-3" x1="73.37" y1="66.85" x2="73.37" y2="23.75"/>
  <polyline class="cls-3" points="69.75 27.64 73.41 23.98 77.04 27.61"/>
  <polyline class="cls-3" points="66.92 50.04 73.36 43.6 79.75 49.99"/>
  <polyline class="cls-3" points="69.12 37.73 73.35 33.5 77.54 37.69"/>
  <polyline class="cls-3" points="65.38 60.98 73.53 52.82 81.62 60.91"/>
  <rect class="cls-3" x=".88" y="1.5" width="97.88" height="97.38" rx="25.05" ry="25.05"/>
</svg>