<?xml version="1.0" encoding="UTF-8"?>
<svg id="Tree_1" data-name="Tree 1" xmlns="http://www.w3.org/2000/svg" viewBox="0 0 100 100">
  <defs>
    <style>
      .cls-1 {
        fill: none;
        stroke: #4b897f;
      }

      .cls-1, .cls-2 {
        stroke-miterlimit: 10;
        stroke-width: 2px;
      }

      .cls-2 {
        fill: #00382f;
        stroke: #000;
      }

      .cls-3 {
        fill: #ccdedb;
      }
    </style>
  </defs>
  <rect class="cls-2" x="1" y="1.12" width="97.88" height="97.75" rx="25.05" ry="25.05"/>
  <line class="cls-1" x1="45" y1="97.88" x2="45" y2="59.62"/>
  <polyline class="cls-1" points="40.04 64.63 44.91 59.75 49.75 64.59"/>
  <polyline class="cls-1" points="36.94 82.62 44.94 74.62 52.88 82.56"/>
  <polyline class="cls-1" points="35.7 93.25 45.07 83.87 54.38 93.18"/>
  <polyline class="cls-1" points="38.88 73.27 44.9 67.25 50.87 73.23"/>
  <line class="cls-1" x1="74.22" y1="98" x2="74.22" y2="19.86"/>
  <polyline class="cls-1" points="67.75 26.6 74.23 20.12 80.65 26.55"/>
  <polyline class="cls-1" points="60.15 67.12 74.26 53.02 88.25 67.01"/>
  <polyline class="cls-1" points="57.62 81.53 74.15 65 90.55 81.4"/>
  <polyline class="cls-1" points="63.22 51.62 73.84 41 84.38 51.53"/>
  <polyline class="cls-1" points="65.62 39.24 74.37 30.5 83.04 39.17"/>
  <line class="cls-1" x1="22.16" y1="97.75" x2="22.16" y2="45.86"/>
  <polyline class="cls-1" points="15.56 52.5 22.04 46.02 28.48 52.45"/>
  <polyline class="cls-1" points="11.44 76.44 22.08 65.8 32.63 76.35"/>
  <polyline class="cls-1" points="9.79 90.56 22.26 78.1 34.62 90.47"/>
  <polyline class="cls-1" points="14.02 64 22.02 55.99 29.97 63.94"/>
  <path class="cls-3" d="M34.06,24.46c-6.06,0-10.97-4.91-10.97-10.97,0-2.38.77-4.58,2.06-6.37-4.24,1.52-7.27,5.56-7.27,10.31,0,6.06,4.91,10.97,10.97,10.97,3.68,0,6.92-1.81,8.91-4.59-1.16.41-2.4.65-3.69.65Z"/>
</svg>