<?xml version="1.0" encoding="UTF-8"?>
<svg id="Tree_1" data-name="Tree 1" xmlns="http://www.w3.org/2000/svg" viewBox="0 0 100 100">
  <defs>
    <style>
      .cls-1 {
        fill: #00382f;
      }

      .cls-1, .cls-2, .cls-3 {
        stroke-width: 2px;
      }

      .cls-1, .cls-2, .cls-3, .cls-4 {
        stroke-miterlimit: 10;
      }

      .cls-1, .cls-3 {
        stroke: #00382f;
      }

      .cls-2, .cls-3 {
        fill: none;
      }

      .cls-2, .cls-4 {
        stroke: #4b897f;
      }

      .cls-4, .cls-5 {
        fill: #ccdedb;
      }
    </style>
  </defs>
  <rect class="cls-1" x="1" y="1.12" width="97.88" height="97.75" rx="25.05" ry="25.05"/>
  <path class="cls-4" d="M98,65.88s-19.85,5.12-24.38,16-19.73,13.12-28.27,9.88c0,0-17.97-11-36.82-.5l-3.02-3-2.14-3.38c18.85-10.5,39.84-.12,39.84-.12,8.55,3.25,23.75,1,28.27-9.88s26.52-17.51,26.52-17.51v8.5Z"/>
  <line class="cls-2" x1="52.23" y1="80.29" x2="52.23" y2="17.54"/>
  <polyline class="cls-2" points="48.72 20.91 52.13 17.5 55.52 20.89"/>
  <polyline class="cls-2" points="44.09 51.04 52.21 42.92 60.27 50.98"/>
  <polyline class="cls-2" points="42.82 62.25 52.2 52.88 61.5 62.18"/>
  <polyline class="cls-2" points="45.97 39.82 52.12 33.66 58.22 39.77"/>
  <polyline class="cls-2" points="47.88 29.79 52.38 25.29 56.84 29.75"/>
  <path class="cls-5" d="M31.06,25.71c-6.06,0-10.97-4.91-10.97-10.97,0-2.38.77-4.58,2.06-6.37-4.24,1.52-7.27,5.56-7.27,10.31,0,6.06,4.91,10.97,10.97,10.97,3.68,0,6.92-1.81,8.91-4.59-1.16.41-2.4.65-3.69.65Z"/>
  <polyline class="cls-2" points="40.59 74.12 52.47 62.25 64.25 74.03"/>
  <line class="cls-2" x1="29.21" y1="75.12" x2="29.21" y2="42.3"/>
  <polyline class="cls-2" points="26.46 45.26 29.24 42.47 32.01 45.24"/>
  <polyline class="cls-2" points="24.3 62.32 29.21 57.42 34.07 62.29"/>
  <polyline class="cls-2" points="25.98 52.95 29.2 49.73 32.39 52.92"/>
  <polyline class="cls-2" points="23.12 70.65 29.34 64.44 35.5 70.6"/>
  <line class="cls-2" x1="73.49" y1="66.85" x2="73.49" y2="23.75"/>
  <polyline class="cls-2" points="69.88 27.64 73.54 23.98 77.17 27.61"/>
  <polyline class="cls-2" points="67.04 50.04 73.48 43.6 79.88 49.99"/>
  <polyline class="cls-2" points="69.25 37.73 73.48 33.5 77.67 37.69"/>
  <polyline class="cls-2" points="65.5 60.98 73.66 52.82 81.75 60.91"/>
  <rect class="cls-3" x="1" y="1.5" width="97.88" height="97.38" rx="25.05" ry="25.05"/>
</svg>