<?xml version="1.0" encoding="UTF-8"?>
<svg id="Wave_1" data-name="Wave 1" xmlns="http://www.w3.org/2000/svg" viewBox="0 0 100 100">
  <defs>
    <style>
      .cls-1 {
        fill: none;
      }

      .cls-1, .cls-2, .cls-3 {
        stroke-miterlimit: 10;
      }

      .cls-1, .cls-3 {
        stroke: #ccdedb;
      }

      .cls-2 {
        fill: #00382f;
        stroke: #000;
        stroke-width: 2px;
      }

      .cls-3 {
        fill: #4b897f;
      }
    </style>
  </defs>
  <rect class="cls-2" x="1" y="1" width="97.88" height="98.12" rx="25.05" ry="25.05"/>
  <path class="cls-3" d="M97.25,78.06c-4.04-.33-7.66-2.17-11.8-2.17-5.15,0-8.94,2.81-14.24,1.88-12.48-2.18-23.45-12.45-17.47-22.88,4.49-7.83,17.43-7.96,21.66-.06.67,1.25.86,5.73,1.08,4.13,2.41-17.92-10.14-22.81-22.33-23.48-11.43-.63-22.13,5.63-27.28,15.84-7.64,15.13-12.12,17.33-23.86,23.68l-.38.38s-.12,17.12,20.29,22.13h52.72s17.87-1.88,21.62-19.44Z"/>
  <path class="cls-1" d="M95.88,82.5s-9.68-7.88-22.13,0-23.7,0-23.7,0c0,0-10.28-8.31-21.65,0-14.03,10.25-25.64-4.25-25.64-4.25"/>
  <path class="cls-1" d="M92.88,88.13s-6.6-5.92-18.96,1.96c-12.36,7.88-23.52,0-23.52,0,0,0-10.2-8.31-21.48,0-13.92,10.25-22.03-2.71-22.03-2.71"/>
</svg>