<?xml version="1.0" encoding="UTF-8"?>
<svg id="Wind_1" data-name="Wind 1" xmlns="http://www.w3.org/2000/svg" viewBox="0 0 100 100">
  <defs>
    <style>
      .cls-1 {
        stroke: #4b897f;
      }

      .cls-1, .cls-2 {
        fill: none;
      }

      .cls-1, .cls-2, .cls-3 {
        stroke-miterlimit: 10;
        stroke-width: 2px;
      }

      .cls-2, .cls-3 {
        stroke: #00382f;
      }

      .cls-3 {
        fill: #ccdedb;
      }
    </style>
  </defs>
  <rect class="cls-3" x="1.75" y="1.88" width="96.75" height="96.75" rx="25.05" ry="25.05"/>
  <g>
    <g>
      <path class="cls-2" d="M66.73,45.13c11.36-.11,20.66,9.02,20.77,20.38.09,9.09-7.22,16.53-16.31,16.61-7.27.07-13.22-5.77-13.29-13.04-.05-5.82,4.62-10.58,10.44-10.63,4.65-.04,8.46,3.69,8.51,8.35.03,3.72-2.96,6.77-6.68,6.81-2.98.03-5.42-2.36-5.44-5.34-.02-2.38,1.89-4.33,4.27-4.36,1.91-.02,3.47,1.51,3.48,3.42.01,1.53-1.21,2.77-2.74,2.79"/>
      <line class="cls-2" x1="2.75" y1="45.13" x2="66.77" y2="45.13"/>
    </g>
    <path class="cls-1" d="M2.75,49.53h32.81-.02c5.94-.06,10.8,4.71,10.85,10.65.04,4.75-3.77,8.64-8.52,8.68-3.8.04-6.91-3.02-6.95-6.82-.03-3.04,2.41-5.53,5.45-5.56,2.43-.02,4.42,1.93,4.45,4.36.02,1.95-1.54,3.54-3.49,3.56"/>
    <path class="cls-1" d="M2.75,40.69h50.8-.02c5.94.06,10.8-4.71,10.85-10.65.04-4.75-3.77-8.64-8.52-8.68-3.8-.04-6.91,3.02-6.95,6.82-.03,3.04,2.41,5.53,5.45,5.56,2.43.02,4.42-1.93,4.45-4.36.02-1.95-1.54-3.54-3.49-3.56"/>
  </g>
</svg>